<mxfile host="app.diagrams.net" modified="2024-07-08T02:52:44.337Z" agent="Mozilla/5.0 (Windows NT 10.0; Win64; x64) AppleWebKit/537.36 (KHTML, like Gecko) Chrome/126.0.0.0 Safari/537.36 Edg/126.0.0.0" etag="Em9IrZd61xA1UMNxPK-V" version="24.6.4" type="device">
  <diagram name="第 1 页" id="saNb8LpIgy3BnkBIC-vI">
    <mxGraphModel dx="1674" dy="827" grid="1" gridSize="10" guides="1" tooltips="1" connect="1" arrows="1" fold="1" page="1" pageScale="1" pageWidth="1600" pageHeight="900" math="0" shadow="0">
      <root>
        <mxCell id="0" />
        <mxCell id="1" parent="0" />
        <mxCell id="IFMsK16bpbQCYlpJYM-S-1" value="" style="shape=image;verticalLabelPosition=bottom;labelBackgroundColor=default;verticalAlign=top;aspect=fixed;imageAspect=0;image=data:image/png,iVBORw0KGgoAAAANSUhEUgAAAoIAAAEUCAIAAAAwRcCBAAAgAElEQVR4Ae29Pc4zO5Ae+u5k9qHMwFmAvQUHuo5P7iUYVuz4At6BEsPZiZwYjgYDGRNONpkNX9uY0UWxyOJTP2S39KqlboovPnwii1XFqqeKrO7WD39ut9sff/41/00EJgITgYnARGAi8H4EfmYZfj/oc8aJwERgIjARmAgwArMMzycBE4GJwERgIjAR+BgCswx/DPp5JTgRmAhMBCYCE4GFMnxPf32YmKf1f1/2naPeF095pz1zrqcRaCXbywP6nMLnpJ5GYzvBRx15lP+PP/96QgT9/aU4qvpsu+NIZ+izNs/ZX4XAQhles05aWdKiv8r0R/WE9oREo5l5zP+GZ3bfiUAran26iaB0O5a3FHoR1LZeyuvZG2XRF3FcOD3FOCWcZntBuogYbdg14iKywwaaLW20k4lIkXZnSHhm49AIBGVYsqTTQJ9bWdKio+zb2mJMx6n7/c72eB60U1QhcbbfiUArBC36c7b5NBCKKBSKJM+BaoN4IQ10p982ItJF91kDDklbhnxDeKTheTxFmPfcELO9ka0hpof/eyWTclAEmmV4vT9highxvZ5Fzr/9u79f/89oY3tkj5CusPUpOIptEZ+NhxBYH8e//bu/95o5BK3/Pf8TlDDKIVGSSmYJDZPRNzSehrflINpseEwX0WgNMb3/fzijKPQN5N+o/TSqYo+Y7Sl+CJEU/hYRGWb7swg8kSfNMsxpEf7/KSf/9u/+PrTHE83ebRjCVGYedA0prTbyz/Z6BJ4OJU+B4cBJW3TkWWyzEvlf+DvKcQjbLOsponOjxtPwrjHV8HBX/sfFZTiNsyIiDcMgqoTBNITBC25BeRpVMaZjPw91OHnIsAn/bOwHgSfypFmGvVcfz4An3DNeiAvc8P8Lv3AyBbvYFv7ZeAiBX4ayFQJPZ8qa/0P7RaE0DFuoGXlagsjz8vZL4F10jc02DoZdfGJvpIRfGh4NGeo0vNTLKS9B9SXuv9y1qfCFCDyRJwtl2Oc9msuja/5HqafbT7iHc4kvay6i1zjlNxecbrY7CLwklK0YdeZdE3ojLrMYOnYxtYQeEmV008Yv4fW2dXzpDHk9TEGRVhtlhUcaMuopMvTyxi9RRVOl7Ruh2cw2N5wQnL0Rn8iThTIs29ZiBkg+bQfKE+6JMcY8SWvTYH4hivuiRxpGodBnYw0Cvwml6McQYFsYsCEMvoFs2GbOxcyXJDGcMhHqfE/7JfCKqX1HBKVOw6gyQMmoINmieEs8BWVf2/4NqggOuin2S8PYLIKGPru7ReCJPGmWYQl/2DAQtHLIsP2y+4R7PGPoQkgUC8UjacgQ6jTE2V2JwNOhDLewFhGNkThKA6WQU+jMGf6P/C0GpCP/G9q/gdeYx14YInY9A1KwjVLS7jP4UaFwQ7qicLvG06iikWI22ylD0hD7hbPVEM7Z2BUCT+RJswyjY5gi2GaeVpZ4TtT5RBvd+3f//T//zX/6t/jv3/33/yyWmI9ombmEzTeEU4z3PEgR/tl4CIFfhtKHwMTLGCOjUmKFAYdkVPQLmzQMP4owjzD4hijZuvE0vOL4YkNcEDdDihldVCsMos00jEIzumn3aVSNVeiCtKWBGYVEVNKiI89sfwqBJ/LksTL8UPgfYl4DGbr3T//8z//Pf/uPUob/zX/7j/98/2ee8X6/98uwT3QRFDPEeGnIEDdadMM2uyECvwylxEseb3qKzGsiZbqSDMLPDc8W0s28KCVtaZgptuv+El40bNF4ZsD/BdKHZHFSbKPmVhv5t2u/BNUWJiE9JAq823k6Nf8GgSfyxJbhMPAhcdHQ56Q6atG9+/3+v/7p//zL//If/uY//dt/9V/+w//3T/+Xp+P/W2UYecK2zG5GhS4NZpDubDyEwO9DaTajVjg8fQ3FKEfXvHiLOeREVdu1XwIvm9f3gkdDnpCILiMDtpHHt9dzetlfUn6Pasf4cCgktvLtl95N8Vch8ESeHLgM3+/3f/zf/+Nf/9f/9x//z//kfJX/TRkWenjz5Ecx0XnUR6hF95yT4hEwmbo+lKgKQ4Bt5PHtlZzM1vrfqA11hkQjuFH3JfCybYtehAxMDIdkcclixIkM0ePT0uk5X075Jap9y8NRJrb+f7mDU+FLEHgiT1QZ9qmAGbDeRJFaL7KG07snE5mGKcNeOfMLXcSF0mk8xNzR881DT4dSwF9seHhRxI8aCjMbopQQQzfMD01kVL2k+zS8OPtKL1q+sypREnZxupBBxBcbXtXLKb9B1aCEtqFrSG8lW4duxGf3Iwg8kSeqDH/E6PWTPuHeeuWT850IzFBuivaEdwt4J6pboDqezifyZJbhed7wBxB4IlPHW67beTTh3QLbieoWqI6n84k8mWX4A0VovMx71KMnMvXRKb6Zf8K7RfQnqlugOp7OJ/LkYGV4/eEV40V3JI/Wx3Hxbf6RYHmVLxPeVyGJeiaqiMZstxB4Ik+OVIZbbk/6RGAiMBGYCEwEDooAlWH8qN4w7X/4h38Yxpcvd2SGctMEmPBuAe9EdQtUx9PJeTLL8HiRHc2juaNtGtEJ7xbwTlS3QHU8nbMMjxfTMT2aO9qmcZ3wbgHvRHULVMfTOcvweDEd06O5o20a1wnvFvBOVLdAdTydswyPF9MxPersaD8/Pw/5vJ5/PacY8ISIyH6w0YH3g1YdfeqJ6tEj+B77Zxl+D85zlt8i0N/R+sXvZ+mvZVxfrUixeu6uFBHZnTT68O7EyMOZMVE9XMg+YnCnDN+ul/PleuxPUM9l8JGs2mJSDOVSVc3jYgaWRmwzg6cIPZwI1WIBFilhOFCjwns9n6K/8zV540fPl7RH3GiEm4nxdjmdzmn78CJJf1Z4IIweN7Wier9dzqdTxooUUR+6REpAaVgsSfU9sEbh4wZPiY8gwHliPil9PZftB9fVR+z75aSwDH6paYp/GIFWKFtFtGXuSv6QbQ2xLJ362rJkV3SE98Z/18vp53S55l62lvaGc6HxUPHjlvjzdfv1/FM3j57CIj3kK6BK6PwQdtlRhVaiEWSnU+UgIm/FIqS7nVgMiea4TnGemDLM7vo8OR4MsAzoApS3iNs1/bn7/FseUE8AkkwaIH5uaMlI6nhI7d5iHcpqblga6/D9XuthtyUizHVPgkL0XRlCA7DNDJ4igrtqBPCGGwBv/Q3TZZBEpXYIc6hQRkdsAKoJknO9OHFgXM90fWOA06VZ91KN9iiPiOPoPnGefEUZTtfn9GTodD6fz3RpWlOYLvx/eOB8omZ+upbWSpI4/fyQVBIso3caBjGhj541n/APdjQ1/fo6J/WV5dcICo80cG5f1nG0U7kN2x66AbyuUJCdUmljo9Mi49tofbFK7KHCWM8gVECVnMcya8FIyN0SRnVfIrhPlwsVaMb+fIE6vRCLQTD8Bje+qwyn52k5rHoZqJ8Rq+ldmYTGy4mU1EFWmRfSN6TNB3yEHU3N7mthWDJFRviF0m+Y4u2Zw+lCopfdDyWA1+Z3MpbWAV16lj8oGWmchOplrPYvVKhZBusBqsX5skuUfva4kE0dZjLfKKf/ZR+SJ9YlEvRW/GDwfY07X1aGMVEl8Wuw6bH05ZLueJmzrhXhJlIaTI1LftsrvZSRqnC2XoYA7GhKpy94IcVXX09ResvTbEP03bBOexu84K4oAbw1+cFSKgOnC7+tQ//bX8HNZRo+q1WFQ4V1eMAWoCrOp33jai7iZXvhq3vZp3LVpQp8TvfEtgz3YjEgoIO6NMswB/ZKT6lP58uFNhZ6qLZchvOGUy9GqSXrZ9B8+ZxbsKMpI3zB8xQl4N70NaP8MFmKtG8gv9RgnlSmNl0U2Wc7gFcKB1qMZQDp3OYSEwoGj4+8/GgUQBVAkVtceReL9xJItbKPFLjpNXEXAiGF7dGQ+y5/ZhnO+SwrIm8Xy2UY1tV35cxnvIUdrRogZa+SXJWFza3XZA2mrKJaYUCi8JtRMUwaKLXDdgBvmODdrV/u6WKuUOEOsXidSYAqOk9turstm47gxjOn4fL9sPwRllt+8IDIYvt1Nk9N70dglmHCXC0D+gJk+fhWXTvCYtZIWUmk5qY+Y/3+YA49I+xo1c+wyIVEluEh/L/q0q2WEqQbPX7oQJ/SCuCtyQ/QdLZ+NaQ6WT5UCLrHawKq2nmCR95Cl72lAFDBq608hgRsF9H5ekQEgjJM+WL/yjOSo7kIy8A9wsHkzz6nD0mfL9fy0UR4A0e4iVXgoO/gp/VEkvRQ23889GiQ7dVeDCXbiGUPrQ7pnNFGEImooVM+vXJP6YibWfbT9fBC8oOZtPWbv/rgSNZF/ARaVyJQOmwTUDXOpx2Hr+Fla6kwSIGVRhlDQjMWhXm+HgQBzpPwC0sH8aBrJiyDLh8Pqo9Lr+AXFvqAlnRmYxMETCjD4scTmyFfaxcZ+m8PG/eMttAGI7LDroF3hxYe0aSJ6hGj9n6bOU9mGX4/8nPGxxDAHS2sfFI7F/W2xFGwxePphiK3iqht/22Ed//WHsXCiepRIvVZO2cZ/iz+c/a1CMwdbS1ST/FNeJ+CbUFooroA0BxOCMwyPBPhGAjMHW3TOE14t4B3oroFquPpnGV4vJiO6dHc0TaN64R3C3gnqlugOp7OWYbHi+mYHs0dbdO4Tni3gHeiugWq4+msZfiPP/+a/yYCE4GJwERgIjAReD8C85PS411gjebRvLHYNKIT3i3gnahugep4Ouvd8Hi+3e/3uQyGCesM5aahnPBuAe9EdQtUx9PJeTLvhseL7GgezR1t04hOeLeAd6K6Barj6ZxleLyYjunR3NE2jeuEdwt4J6pboDqezlmGx4vpmB51djTzO1aL/i/yewZPWZzlWAwdeI/lyK6snajuKhy7NWaW4cdCc7uc5/kNj0H2Iu7+jtYvk/IDk62GsTHUFhJR0CvH0Z23+/Du3PjdmjdR3W1odmVYXIZv18s5HWd/vhz77L6XLwM84GRXgRzeGAylL3ghRTDBCoptZjAU6XKjo9kMyXShWjO6t26F98pLP61/+C+fnuRH82UpnQ+qTv28nE7ntHt4Ed5b+ETdvQHxUnsqqlktn6KaEuekNlc1AJuuAk9J0PmsEB/GdB7x9tL4vUsZ5wl+ROtGlYYW0O12u9KZh7i23mXWq+Zxy+C3imcZ/i2Cz8q3QilVc6XiRX5hkDJsNAsD07HbahsNO+wivLT08+o/XdJGUE8Q4wWQOfileKOO8lOn92V22k6cwiI95CuimsombadcZGlzla217Lnp0PJ63Hk5Cp1jQPdGajvuxGJINMd1ivMEy/D9rg7tO3bd0cuAw3i78p9yk4ZkwIX7xkO3mzu0uCvm9EzC8whEoSRtWPlC7eaetdVlWRwVilFrZsRuq2007LAbwKvKajG5ux/IIIni4cMsHSosiod8RVTb3tsR7KvLGarkUIgF7iGx+yanOE90GVb+U0r4BaVYdtzBZZCPIqdbffo7nX5++KEZ2X9NF5o8kB4GVKdw6MRSZZDA+TmJPrm4LePz9XUImFCKYqx8QgwbXGJlqC8oo1iYpd1SIlJrrg9EyR4aAbxYDcTEha0/VQ2+6/UncIcKRfOIDUC17bwfAYopw3cYiu4JRgTxC3ziPGmX4YVVt3eEYBmYK0myXO6HjZfYxTY/I5KrElwRpM6umL2Dcyz7VCjBdCmN2IBx2xQ2OwD99dVUtLEIdqUNivfbDOC1+Z2Mp/VAl57lz16ikxDcsCmHQ4WKY7QOoGo2EvA0GKkkt6nUoVSGe7GAOWZz1whwnrTKMIR81140jYNl0KmSzs1KqC2eA/q0qZwv+C7ZoR8cNDHcyQCGEk3Cksn0kOKLoqeE4sKGDeGUuaSBth3onjiAN6yatABOl/y+zvV6lUvZ7DeNzzJckgBQhZ2jjAJk5mqmMi+V4V4szDyzu1sEOE/CMhyuwt06EhsGy6Dtjh8RijSK+ro+3LUof1TxCz7+WbB47yuEUk3s65+nKIHu28lYa1lP63/WKXNJY/1chvOz3QBel/xkISyAwGASOV9Dwfye0He9cQOotkC5q+fMjCnw2jIMQwuxCMIzSTtFgPPEl2F6Q3SAFQPLoJO0bmuphNriAEIfF8ROozuSWRhK8SssfoZoKmurKzqxwcxyU8uaUb+0Q7UiiDr32Q7gDRMcFoB3RGpGzBUq9FoGoiCqhEm8pVpcsC+QMio41NnRBoLwK1zhPNFlmL+yNMQ30HAZpKtO+FTW7Xq55HvXlNzl81rpG3yyXtTiIT76YFdODTWWPjPtP5byFVn0DidVKMuEUgULgV5DIjPwEP6PgmG7VV9RYWfSjjHhdJ8iBvCqLb/YFRfYNKqGVCcLhwqL4iFfNappvyjbzJ32mdxJ+0rZclSHSq0MpO+P1u1nluFhcobzBMtwygKz95REOJzbehnkD0Snj5jQf/B7WPnb8/RBaP7WdHU1A8KfPKGVIGWYnifRJ6zTxySMwio/Wy9BwIayXW7DyscZzZYIAxKNkTKENRvbooo5RafXYyj77Hp4g4el+aG0eMwNXg+0TGBlRNLEctit5KmwWVThRzr0/sP3CBlYxIhKt/zhjtWLxVO2TqHPIcB5gmX4c7ZsMLNdBjwFfawqnqw5UD9VHQm2FUbck/YMAiaUrbLnb0x5E8MpjSwyyI4n/Fh6sc0MokoaImgYDH1vXQPv3sw7qD0NVJv7RXv/OSgA0+xVCHCefFkZXoXMZNoXArijdWpeawidWcMj/IYZa7bwhI31nKH4m4kI75unHni6ierAwX2ha7MMvxDMqWpDBOaOtiG49/uEdwt4J6pboDqezlmGx4vpmB7NHW3TuE54t4B3oroFquPpnGV4vJiO6dHc0TaN64R3C3gnqlugOp7OWYbHi+mYHs0dbdO4Tni3gHeiugWq4+msZfiPP/+a/yYCE4GJwERgIjAReD8C85PS411gjebRvLHYNKIT3i3gnahugep4Ouvd8Hi+3efnPwcK6tzRNg3mhHcLeCeqW6A6ns5ZhseL6ZgezR1t07hOeLeAd6K6Barj6ZxleLyYjunR3NE2jeuEdwt4J6pboDqezlmGx4vpmB51djTzQ1eL/j/E/xCzmfo3skbV1t0OvFtPPbD+ierAwX2ha7MMp5ORLufyN8TBUi9MkN2o6u9o/YInvxTdahgvUVurzSJeIf6oNcqaKfbW7cO7N2uPYs9E9SiR+qydcRm+XS/nMx1jfz5fro1TED5r98rZVy6D2zX90TGGeEjMykkc2zVhR/ipv1eodnN9DQFD6YtfSBFssBximxk8JSylIVufsyUihu2ngfCmK1M+Ooxwref6XC+nk8liyvVyXmg6u69EAqS6y8EvlnzwWRqA2WwfZzupfQrOMSpHCSag1VRKIp29phbrqdr/iyAhqnQaG/zp+enQw94dgHOeT3dDIdLf1UF+KAiqNQTzrRHctP/3jPc6F834BaRDinKeqC8sXc8nWnlXOgaE2kc+mwyXwXL8ojNSl6UiDsKO4EsnuyUk59kpEU4P0FqhfLTU9flLEVl4RbtFYaeB/PtsK3jTwbj5AjxtAnL0Hhx/S36o0w3bUr3lwIsuc/ALI0QDcFnsumln4psEWmho4k+uvrx/SSlPxvNqvKYTSkWG6hPNFZjxq3AhqnzMY5kinR1c5ze42klp+KQPkixHI4p3K4+RbMeCIYCpgdAzfhvowI7xm5wnqgxrp1cGVwvtpofL4J4PK7zxvW9w1iGknfEgy1zNo4GsI99M+8cGEXjBvJXErbaFeSZjhjF2zK4OZfVRil8l6dZCRS3DWoh6rBn/NzxFNHhlzkXbjMIPdhHeKG2LaTQmO78qHj0plg45motOlx7dCzWlSewI9pW5XHmlEDbNKI4/9dpDFS2jqwAxxc90PdMlAiJfLoHOVU7p8zoMJeI2GGDXsmMf+cwss7sOAc6TThk+Nsa4DNJCTnf69D4wXUvLdpKxCn3ly9ZTeu/4pJ4NpKWTnjRlhXV/ygoxWYGk5iWeTOhaSHw/9DYBGf9tx6d3vgK+vtRxtZR10ReUUd8QDdzwDJ5iRHbYxZWSbg1PrbejZJVA5iaHaKApRRzBcii3oQEieXnx4qBCdJGVEipKKvwIUJJGuFiGoXw3HJjxKxKiirORUtW3pqlZ8yAJwNbB3UpU+pR81Am5JbTFPpnOsmNfSUVzTdoSAq0yTDdk/P7w+ci3XrgMeJeQVYiJlFGK80k9TkYWatNVapYOFAYkvfrSLiSXwR0Lrabusl0K+iHHMZToQHAr+vODDKYt/IaOXamjck/Mo0gXfiFKww8JZbcNAy/lG70tTE93S4IX22nsfL0FKdiTsoWnaEuriB655j/Z+Vk/3wim/+vaq62ipbwGI5XkLK5DqQyTv+VPzCian3pFVPUSJvjgBtiZBtPJGANfRoq+Mlz6Zbz/GnMDIPFkrFQbT0Kvh65v/mCjnCf+bvjGnx2mpGxdFR8BCVwGkGLJdJ1nRLIc6GG6LqELk/p2lWUv66GKNXMdK6+03fzVwtS64DtX+sq4TjlsC0OJTq4pflJ6kVmIRhvy4BC3zSh2sR0ye237oUTw0ic1uRqbTw/xxou3ZuBIU8pegbIM6Tpd+DOS9L9U/by8qAKf6aEsLA+78urswUgluQVah5Ly0Iyq+4kWokprGP70xupMq5PBUN0Q8KImU+ml7iVVPm41uGUyNRXfureMJxRfD11s9qBUzhNfhsXdRrhkfN8NXAaw5pLR3jPLwb7xx9TOlwttEfSIulwoW3ZJYcHETyEzs5J0lS/sVmEVpxG84EzX7MUOkR+6gaFER58ofl4EFZp2h9kPCUW2LKNtt90WvHf6QDJ+VCp5UDOz5dBqKZv0orAM0GsqL4VgnueKADW8YUCxCxSGoMYrfb/sIKo4m1NrTasM5LX6K8se9LF0W0fVJi2QFho1shIaLhMRucWeRRSv0jc7axDgPOmU4W4A1szwUR5cBnUVs0m2H98Nm9zG9LQKDGsveZkVlZFNgcKc371V8FGA3zc5hlJmlbInFPMYmbtqG2t0WENj0JJxOmyH9iDDbtshvNlam6f9Xbm4uFLKJn0Rr6vhlm+RgZOa8Z2fXSnYNwsUh+psMv8rGoiqms4qN6bVYTNASnJ5RH2JDB/XqvKtFkorHp5Q3x/0Aw5xUZpmZzUCnCdYhulxdH0OnT7yHyf86jk+yIjLgJdufitXv7uRLYxSUy0D/QUIm36KNamMFPJc6Ut69JVLfOOtZyGPVe6bvCf9QXjfOTWGUuYNy15IZBEewv9FVdhY5LT12fVDtTskArwpa+EzDzb14uvL56T8tadgY5eXrpTJKDGSFmbukB1SolWHFJQFlx5r1feXOmaIPc80ANX+/QyYpuZx9IpKAlz2D6JXv5WOsKOlkYWmtF+O6hpfTUI1s/0AApwnWIblW/EUC4qs5PoDavfCisuA0it9RLrjV3oA/aM+EJ1WMj0QTr9jcL2kt6mSfzb93JLpJa/eIBivvoX0DfoUkGT/8jf19xKDF9mBoWSVrXIb0rk+GkEkejNRD7Y9p1BWsgn/fhoKXr7cZHR4CzCGhpv4c1JcP2QuavDtnl1eugynh+X1zVa1HPKSTTpL3SUH1FRKwoyxNfhQ1vi/touohpgVRcq0arjfUioKRl9yGr0tquNXI41MyRbjfIddw/oy6NCi4ducJ6oMF5/pA0GlfdRXXAZ1WS84Fg1HtN+B0lth9850I4TlGeQwlP7JM2o0tZA3hkcZjBJ5uI16fNtLeZ59Ugy8bORzufac1LOwNGfrrKFn53pYLkT1YS1TYHQEOE/CMjyC67gMahn+vGfpmbi54NzqwdjnvX2JBRjKVrXzFTecuiW+ptbiFNxe/D+0YW9EhHdvth3Xns+gmm6MXVquv1M+Lt5HtZzzZJbht8UvLxHzSIyn39OFwtsAWTvRZ3a0tdYdnm/Cu0UIJ6pboDqezi8qw7sJ3vGf9X8CyrmjbYr6hHcLeCeqW6A6ns5ZhseL6ZgezR1t07hOeLeAd6K6Barj6ZxleLyYjunR3NE2jeuEdwt4J6pboDqezlqG//jzr/lvIjARmAhMBCYCE4H3I/AVH9Ea7xrqqzyaNxabhnvCuwW8E9UtUB1PZ70bHs+3zul4Qzo7tlNzR9s0vhPeLeCdqG6B6ng6ZxkeL6ZjejR3tE3jOuHdAt6J6haojqdzluHxYjqmR3NH2zSuE94t4J2oboHqeDpnGR4vpmN65Hc0/2NYniJYmCHTFTb5IS33I0SKgPzY7qhFtrD9G9lQ4UNED+9D4pM5RGCiGsIyiQaBWYYJkHSq1OF/QNuEdrCu2dFUVUwdX0ERAV/kPIX5W3TRZhiw22qLZmM22yyjMsX7Gwbe9xsw5IwT1SHD+nKnFsrwlU49PHB9WrkMNvoVydvFgXc9n6I/9/PSLw/04RViKMNqJ0RpoM9CNIVQusIsnFgjZTQkiohvoCDKek6hGJH3dCu8/RT1oznH6Xwl/NnidJRnOo3Ti6Ql8A05X1HNUYRTqE5yniydnYY7he2nw6FOp5NBjNjgT9TdnwO8I3W9uMlTtK/kVdOMYjbYeFJ+viezjzAL50n8haX888cm+EfwSmx0y0BGVGObMkz4efDoRJjbLZ13erpcc09ZMzsRAv1QdmqYFFrmCTmRaNpG3JRSHG210RtR3mkg/9vaCG9Oyuvl9ONSlJdK5uCXYiPluxRidYBYT2GRHvIVUaWjW9JRyHxSOO0AGS0FXHiaM6HZOAO4bCFJedlungO8I6XCSaW3bm1svZiBxz3nUxmzXn4ZMs6/dYrzJCrDCekLwP3bqT4hr5cBW3C78h/8tLOU4Tzm7v9vImS8KEoKQ5GklKNt7FzSszAWebv0iG55FIkH8zwRZ3GrzDDYK4ayVfAMHRGQssdE6UpDmIUijUURqc0sYgRF3JgnXWEQG97fQHjz7FGK1uNuIxPrOgr3jVBhpGcYGqLa9iJT/9kAACAASURBVN6O2D6Bfr4StZTZBJBlE/QFPsshA91GKKVmV0XZsmPfm9Sd+WsHOU98GU7PHG7qqueIGOEyyJeZPz+nM/2dTnS+OJdNSqtzesSTRuTkcXKZiunPqcrI9X7Wx+uDOcrlbX6+k/bZ8kgGnzplUVQl2gBmSP10OXw+FdvJifREKHETH5ho1ILCIzcxlGGdM84ZHuxiWyqoiPMo/m94jDiOypA0RC03hN5pGJH3dBHePCPup2LEwsaaNmi+jS5XpCKadpMxk7P6qFuAaogmc9sh289Vj8iw6h2cPjRWkTau1WtIiXpjh2XHvsi05pr0hADniSnDFUiD+OFAg2XAx/mqXUDuKSlbpCbzI5fKqI4P13lF8KSK6LecqKwifBXjSjW0vPrSOM1bTVIr0EjRpTNwVu0Hb6lQJl/kbtI0Qkd92UM2GcWaygysvMVs+Dt6RJtpiGaUFeLbGh5elWRiR1oq9IQ0/2FdIKa8JMIPlNhMFaXDNgBVvXMojzNmBVK6QcAlLAua+ABvhjM/bkt3CzhagvH4XtAKE09PR6UrnZo9naQu40vZomD44g7niSrDmC+M/HHxgWXQK0/oMjlrM422l9v1ermc6d2duhJ0BlqYuuDFojgxtskimBffnEmzXPDtF71YrVVH7WMo2YewboVELpatIYOIsGEBNm0xQJiNEmFAOjJjO2RGwTe0PbztMny65DdArterXMpmG/PGO8twwgNQtSsYYpr2gnMF9UKPvQRB2Af0jkI9egqWyjY9HnM3A0mxKIIZu822FAdXbUTlwksuhU/0cYKinwR62VL4vv2V8wTKcAKOH8HmB7T0QBaQPRRisAzaycX3ybW4mjLMH6w4Xy605/D7vQWDnk4slYUfXhuiRGZL0vtBImAXcRXnpVGvpFMLnREdx25AKLMjsvJNw/gpo0IXijRkSAq2lEnmYYaQ38hiF9uiUIhCWVQrIts1PLztMtzOLk7fmpza3hZdc43UA1Q7ztsh1ef1LSkCV+OVjVqmOCYUK8cjoHakoqGIVqaz21ahz1eNAOcJlOHyWSS+3uXrMrro1WJH6cEycDeU4IPNFrgAhSYJUM7VXaiXgZYXpiuK6hUvDPKEep7wQiHb0bcBFB+8iaFkV6SMrfHMM3tKRy0ySxv2xl6zZZ7oaTG8k+7hfaIMy2KxC4o9+ZZUrXFDVAmTcMU7oBEngbRCWPYfZMN2nT6m1vG41ZGKhiJaURznQRmdrwUBzhMow2WAXwniEnU9coweLoOU7fgO8PVyyR9zstkCuQ/N+52/9VcB6WUgP9tuotcWTV+41N/B5DIsT3v0+y/p+gLX9+2oF03dnFKhTJyd0uc1+ZrnKSwldNa/RhUKingo2LG5I+hVvZzi4XXVIc1plwoYooZUJzO1cx60DNXUqBIm9dkxbSb8INniAn21/RA0gCuw5QHcBYhZc6xFtiMVDUW0MhVYW0jzNUCA8+Q7ynDKVXo7hd5QSR+tKm+b2GzB5KcsyxL0hfsLfXegANnLQOIRWVKh37vpiCYps6LIIvp4N1sOizmZQt+gZyO1X8XOEV71jkYetepWSPdET2GYDD3lyw8iaBi8VMiAGryIH30zxcMbb+K0VMwfrwfK2roywhLQyfk3e/uu6Syq8OsdVJHz/mNxqX3ciLLNda+qbDxUR4p7lqPQ+68dqWgoopUJmtlSGOZrQmChDB8dJbsM2B/6PNODnj0uUSd4eLr+4mvb/vBE1cb9t3woTTXArnfHl0ZPYamQjkRsy3vJZkY2xhBN1+gxo2/uenjfbMCQ0zVQHXqhDhnIjZ3iPGneDW88++bqG8tg83l/MUF64oy3FUmXv9L9xRSHFPWhbJUxQ5fyzG5L1zQEFEMPu6hKBH2DZZE51IZEr+Q9FA/ve+Yde5bdoUq3rv7PPHobOyZ79I7zZJbhPcQmLxF5VoU2zTK8ux0Nw3P89oR3ixhOVLdAdTydswzvKqbtB867MvMTxswdbVPUJ7xbwDtR3QLV8XTOMjxeTMf0aO5om8Z1wrsFvBPVLVAdT+csw+PFdEyP5o62aVwnvFvAO1HdAtXxdNYy/Meff81/E4GJwERgIjARmAi8H4H5Ea3xLrBG82jeWGwa0QnvFvBOVLdAdTyd9W54PN/u9/tcBsOEdYZy01BOeLeAd6K6Barj6eQ8mXfD40V2NI/mjrZpRCe8W8A7Ud0C1fF0zjI8XkzH9GjuaJvGdcK7BbwT1S1QHU/nLMPjxXRMj8yO5n8KyFAMCuantcxop7soaObFbkft3oYMvHsz76D2TFQPGrg3mz3L8JsB39109Gvzp3LU1O6sqwat39HCwolErJTclmn8UEgRfjxhAqdAOjLvtr0e3t26sEPDJqo7DMoOTWqW4dv1cuYT5C8HPjdvr8sATlqhY5sePWjilYmUDkEJflT2dikHwLxytud1rQylqYU8nxC5IV0zurJ2rhQ3bM97/hZJhJcO7NJ/JRXSSOmkI8TO+bdX6WIu+Ms/ju5HQUk6P7T81HE9CJAO9bMai5Sx8MNLqB0gRJW40jVvvrADT/vuqM2i7hUkVPBIFtDBiXJmk4LuEXzUbHZrShExP3jfN54si6SSxfFcRuHpVNzy+ZDyg+y5Xk4nYxdxH+D2IgHBeWI/okVbcyoPN67GxsEkeYj/7DLYhdFXOpWwHB58owQqBy5+yLzoKoB+4HpXYV8TylblEzo3pMt4m26LGLLJCUuLN80fiu3aaTW8dAQQZWZKUzgPKP/suSQG9Uv2JhktJb/Nyj+Jnjn4pRiWVFJJoiy80cYs2ttSPO+1TEkLSqSK4j28KlTbnvbc4b04VV+uWsVRFoK1CwezGYV0nkMJUxeWha2JZjjZfWFxrlAqFefWNpjiGqTfvQQcMrPkGHhPLpJVBamuy7sY5DzRZZizfxfm/dYItQySsts1/eV4lhimHYAnuxUOnDvT6qUo64I1QATQlttZmRqAnQunkHYxIJwsUMiCDak8yE7zVlcmEgjcIY40QouA9sb8l4XQkTapzPDSVx9Ko35NmWQRw2m65p4YR7FtZj96N4DX7fN5czufZU9vsLgtv72ltEfUEfcGXjtvT4sRfWsXUe3Y2HbHjkAfmuwTFCI7ZvsxCEtcVzprnZhUfbNStr9Oyltk9QBHOEREMQywALndNjlPVBk+mAddaHEZ5JPIz5crPW+nu5f6uCNfPFEkf06n85meZ5Qay1eIZ/qjUYm0Cnt69CK7050wPJ1PP6RKi4UZVHyg2sfzkwV4BdtWmB7INKTyVSFZnexINw3sV33AQ0iIU+UREs3OCPFzH0bDuvzOa04dyoJYeV1TIIUnuab+K2roVdik7SnMr1S0O6h8t+0A3iBVOQFqGjRY6uLJ/jZLUHOABNuDdt4252cBB1R7JjbdsQN5D0ur0Y3Bxm3HbD9EZYkp6yc23C+smOnHUoYpsqfD0hgSiGkcTYzU74rGeYJlmF2Qt4bpkXspSLuyfJUxsAxSyaj7Q7pGqzrI61Rjra8SWuaFro01rIK0gdS5cGpQUGeXlroxRVZqxwrTXThYjVLWDn3DnmdVAtWSMJPJZzADXRbJjRoYynbJUyNoSauUSq1FZm53RJC5xYZ05N9nG+HNFppgE7WQSuBLH3wKSFxQ02VvfrO37JEhsyijzIykih35YU26eN3ntltR7XrKg4E7wdoUktNYggJxYijTEeawbAVg3RDNmlx6op4mLgFcnKshtTAXzen8K4a0h9gycnfZ26ptBy3OE1uGuSDR3p4eTiLoO7D5ARPqMuDY1ewxoWrF3KVLJZhsTHfA5Ra6crGxldeORM7QA+bLJd1FF4OtWFUoCmKp5Xy0qq3FMkFqIG7Y1lwb9DCUXn2/5pnRfpcLs+FpEYWu6n/peDt3SwngDdaEkHL+Sb/6FZC4DJ8u+a2R61XeHUFmavMfJn0kxWuZCzRJ7PdOoaLa9ZRdp0sU406wNoWEGhP8sBwrlglR+qwSXKnXYKmWaFbU0jHaS4xKLDhy6aoJ52pJ9edKczr/iiXtMlyu9w5XsDhPbBlWezfBUUGvWByhVZdBvrzK73fy2/+QmY2Ye3KlWFwg49zjNC2l4FUw5gfglwvtVPz2LI/btK0K+TEy7UVOSjGpebBjVfOY9U4k6oB5oCAc2zRUKN0UvmoKi2wQ3PC3vygrPCJuGp7BiAs/0oW420YAb5A+QOJ0x6Rn34ClOhvnmHknJ7HX9Fr3UJr497s9AaoOKfC0YmbcqQMFy0qprTwGM7ixIt577QpRBNWflISeWFOqJ5Rt7LA8N9Tz/cNjnCdYhtVdHVlHPgvmHzb30elhGXC5Op8v6W1SvGIrTkbV0e0flWBzAVaBK8NVKg1FM/k9CYEHBQkD6OO8JlzA1UYuZsLJjSxP2GEw/K/p6lBanQ/VPLWdpI5R5xmEYji/9W64JBp8XCsjY5dFIsc5Vi+NK6qYVk0p9cAynLAq/GgLkpbMVPsoeIouYNvf9+FoZ+Ej23oACO/Ht6bOXB0LO3Nlgzt6nxtaD8TbOYMyrHKcvumms+ftJv5mQlgG/cuJZmDTQHl7PH1jQBKVkeFbav4ugRqSB0H2rZmUgUVl+iph7qis1d9O4KzNT5a0wo5U8pkeAGQMb9eL/yZdI8ANMmm60Zf08FNsvwnRWlkMpZd5tAyjBi/rKczfoou2RQbh3FsjgDdYE5pEKeI2bs2S3ewkU1JSU5SeB5WL/raUnoT4ZOntCliFatvTjjs0JM6pTn5akN8Hu11wn9YK10OSkJRg0BbEHbXHkDoITXuunhSrqG8n1LmKtW29ukIVfn7tSGnGXfU4T9TdMNmXHo6m74jRw86yi+/K8lXGqGWQckdua/Bz0v6qE7RzPfxx79uwUNZH+QRfAKYETB+RDqSojjG+LAsAUw6lt1fSM+brhb4gwJb0FLalSLZMlSyBucRDWFFCo4aoJZtkaSaWNPTmjU+HUlnqnzPb4dRnuD2zr52ewgo9PYe//RJaskMiwpsjD06VWNNIaZcUgT75ZVjY1VSBQJ/6cL5aDfhGb1vKTtLK4U8DjajadQ+e9t2h0fJnwC6Lm4brdzgaQVgFhgpG2S5cPcU6bI2XabpSxBXOJRtPcdlf6cU5xvM2rRGz9tjgPHFlOLsUfE10j060bcJlkH5Vha4oyndhKYdNWrc1kVQ4StrcQN0WotHCHoom+wqHvC4r7E3EPouyRxqxjcEKe0TpM7wYSi/vC6TwyHJGirR9Vf7Nc+aOGTjjDtt9eN9hcJxp75h5uzliVJ/ytLO+O0PPuvaUiU9O9s65njRxazHOk0YZ3nry7fXDMsCbVZ6YLpzK3eaLTalV80WKX67wF3Z95n0KCKWy3VdZNew6wm8ayNiqpoZuNLS6qHm37Ra8uzX4EIbtDlW8s675uv5m5BCoH89IzpNvKMN3+qnS8tsY6dcxyiOXDaL28qr5coVPOZ0X8YbAtc3a3Y7WNvWIIxPeLaI2Ud0C1fF0flEZTsGjn2mkv+BB8njB3cKjjwE3d7Qtwik6J7wCxQsbE9UXgjmwqm8rwwOHcnDX5o62aYAnvFvAO1HdAtXxdM4yPF5Mx/Ro7mibxnXCuwW8E9UtUB1PZy3Df/z51/w3EZgITAQmAhOBicD7EfiKj2iNdw31VR7NG4tNwz3h3QLeieoWqI6ns94Nj+fb/X6fy2CYsM5QbhrKCe8W8E5Ut0B1PJ2cJ/NueLzIjubR3NE2jeiEdwt4J6pboDqezlmGx4vpmB7NHW3TuE54t4B3oroFquPpnGV4vJiO6VF/RzO/bxVC4Hk8RQRxCNvCgA3P4CnIv8N2H94dGnwIkyaqhwjTx42cZViFgH5s/OQPIVI8D3WeU/ic1EOGHY65v6N1yp4MdRoeDWHmIdM1RBn1Da95n5Q+vPu0ef9WTVT3H6M9WOjL8I0P5E2n8sp/Rz1k6dFlQL8Zufq4ByrZ8ne2JxhzdB9SKAnRkrpdjnzclbj3VKMfSql/oW4exf+ZrSNlhkxXZkGdyINtYd5zA+Gln33VfyXt0kjppOOUzvmXTdViqML5N9v9KChJJ+2UQ4Tq0XfpcLCqKbWKlLGwsfg+jzeiao4Uwl+ENe6cTjjIJxFF+LT9U3hrdJ6bqymlZqrRkt/qx1OUtFdt679vhPMEP6JlyzAdkCegHg0gswzWmO+PS2pJpWOGrnQ+yO1Kv1fdqN/rFeJEkdSGZ1Hg1Pts90PZKXv1F+yhxT4C4Qe9Fm3IIG3hFAo2+ppFdm8NDW9OajqBjBM8m5t/VFz2A+qXcwGSDC2FKiW/fMo/iZ45+KUAkFRS8aWMv9GuLdrbUjwvm5ZkdrpHKVTJnXIIeTK6IFdOfUPoCjx83miMj/C4RndragU3HzHYmKsplaOKxqu4t1x2Rn8xgfMEy7AGI53wns+81SOH6KllQBbnn5R2Pyqdcym9BJ7xD1GXZZ+zzJz2x6uslM9nFPJ5hEVSm0FUynTar/IfMrT8Qp5jt10oyR2sl+yeUIy3UimFLpzS8ENC6TQe0tzR89mhAF6ssdk4Ip3P51p6oQwDC9QXpnJBjTxsj+CZtlbSmtbTYmXf2UdUrc3ejojjOc+6W1Oa+Lm5IqnsRzQU0bzbk5K/WNsqwwSjXJseES1cBuW68nK5XvIJS+X6oj5ZoT3VeJxy6Xy58h3vz488MjK5jodRP6uwPNWxZmR9accvPOUBXcevI4asZbMKZWGSCioNrM2FK1dr5hFO32B+Lqsiiw0RESLqlFHfEP7dNgJ4g02UN4S6LTRY1pfhbpVpD9p525yfBVyhSkaWW8PQLOvVvXclEmooxM7WlFmemyuQKlOGQ4suF+kvf+U8aZTh69mWpKOhhcsgzBPrkFvPWkohYnP97oSjddRRWI2JNPEzI3ONQDf4/o6kKhqnhaFkr6Ta+dIbDglRCi1ThC56hCINP6MwmwbqNOJ7DoaHN0qskmsl9UsfPAtIXE3SBWy+hixZHDKLMloFkVTJ+fxgiB4SuYtnUfLRhkGV3E0e5WfwxjaPhqcYkUa3xEeG3YbiNXuKSEujw9MYInLHZdH83Q3Ok7AME4BluRwVJLUMUkac6L5W3rtwfoXpWlFQ6a06pMkJRzQNq9PBFkWaWmVY7oZ7fjlHD0dQoYTH0eyIL3iGYroo5YeEIg3kN9AZHuQMh4z4TroGXrKKMtXc1wopZ7H0qxcBiVfG6ZKOGFXnjCIztfmvrDdaBZEUm8YFOu3x52t5L6jasYtWgOo9f5Ak+CgJosHmI8Xj03bRbStuQ0HN6+fyUmJDZ6jjsoh/d4PzJCrDBGtZD4fFyC4D/jAVfers5wc/kykOunTlIsfvyPKnEGTF21wPE/ERhWJFWNCbZZjf8k6fbm36VVUftYWh9OWtQ+GtHf8XCFiqI4t3uqbNXVSLelqaZeq9NRDebFuQz0Di7LdrICze8QVqmsXJ47bj105BrdpBrf3uUwGqBVxyzhhevSp+0kagr4QQH+FyDSvmNXvKmrkCqTJ3Zyiz3AKXi/SXv3KeRGXYRvKQQHWXgbvWj25eaQs5nc/8LS79pSSDUJyHwVbSVFghDqTy7cnSlVH6goBeuVXtkVvtUJJXWAJDL4VBGiKFFJZFirSlYfQLXRodzUZ2P90A3iChkURt/LhW9gVZxL04n3NKq2KUtObPbDSl1I16OKHM/NlGgKoYhJ4yMfCESE18RJVrLG9Nz80VSJW5O0OFJYVtaQMT5m9qcJ4EZXgNqvsHCpfB7UJfvhCbYwfdyie2RuZArqcPMev1kid6RKHY1rgbjsmr/Kqqj9rCUHofsASGo8IgDWYzXU8UBmmgfr4b9lJSiZF5z+0A3mCFaBLltnu2qlmyy24VVCiSkvpU+Xqu660tpSchvn1eeQKqyeTqZ7o1NEZrrwA6+n6EdCs+FUTbWt6anpsrlOLJg6FEqqZHLlvDv7TPedIow43ycyCoYBnIGxTpUyLpoXTwoyTByk/7hDx8lM9J85O2SpcPLmt4HlFYJQOpNEiJnT7wQC85wct7TV2/quqjtjCU3oewRho2jpUnGkqrgnamWK/Zz7UTCsKbs0xyuxY5s9cmxtW1BPSp57H4Cw/qvSK98pJ43pKMHfH16Q6QRVTTr5QABvX70fzGFwxVwMmHJj5tBxVy+lcz2sHtzdWXSpL+kwTWdHofsG3zN49wngRleAxQ1DIoLtHXbkt78ZW+KpTKdfm2Ll2um51nUQkyvEBhw4EGGSc/cDsMpfjTqZHMw5ucKbEs5WXXUHBqr8dThH+fjT6877B5xPQNUX3S0SfFngrdq+d6tb6nnNqxEOfJd5XhR8JBP1+ib5rpuvAXF3UvV/iIN0fmDXc0LqtSYkP//KivkabuCoO6Q4EOT/SE5tDCPRBb8O7BtuPasCGq/v6U0tFsVsdF7rssn2V4Id70Y6o/p1P+de3T6Uc/4lmQDoZfrjCYY0TShjvaiHA96tOE91HE1vBPVNegNHlmGV6TA/RDkvT3wMPsvtqXK+xPN8Lo3NE2jeKEdwt4J6pboDqezlmGx4vpmB7NHW3TuE54t4B3oroFquPpnGV4vJiO6dHc0TaN64R3C3gnqlugOp7OWob/+POv+W8iMBGYCEwEJgITgfcjMD8pPd4F1mgezRuLTSM64d0C3onqFqiOp7PeDY/n2/2ez3Ec0rVvc2ruaJtGfMK7BbwT1S1QHU/nLMPjxXRMj+aOtmlcJ7xbwDtR3QLV8XTOMjxeTMf0aO5om8Z1wrsFvBPVLVAdT+csw+PFdEyP5o62aVwnvFvAO1HdAtXxdM4y/IKY0m+vny4rf7X8djk3ToGgMxrKn/4BzRfYeHgVzR2N0G8g+rzT8kMt17P8dOntJufcPK94r5JNePdq8CHsmqgeIkwfN7JRhtOpPXRkz1kfsftxex804D3LIJ1nsvbXXFuHJ6WjVNJvddkjRrs+0xVA8PeLX73uTve5wV4o03VQ12W6+Gn8RRku52/QadN8SUS/4Xuqp7atAwKK+DqBj3FVePsZ5UfzJRBfi9YzU+jH0xkuL5ISthuvj+Hw2okrqgyH0l6TLJMTUAYW+u1b+MP92AzB2W9lmmWFqC8dt966ovVBXLz09SIS92tKjmJmeiVuvpUxfikTvc5FM9QsO+1wnpgvLKVKcaFTMWhtHfnnwusy2Bj/uv0sTdQpw1l0mUPNkeJ0Sycen+hE5fSnOIboYCjNQqXVzcc/qg0LYyLV1GLRGigneOTxtEmgwqQnsCNtY3J+R0u7teLzfQUv59A1HV1nMoqTM2eZzrV0oVIe48CJt/d7Zg8Vft71DS0AVN2qjgiUyLoOM6glCLQdA0PCFVHVrlAMQoVnpQ9uIFTUlLJO3BWf6nTibmYqy43Ejct0VyImPmWGsmmXHc4TXYY1QrKl7NL+BaNgGdBeYLk1Jf9w9NU9eixshUH05DRLL1Y35RP/ErVWWFZf+2eqC0ekMd0ua4WZTW2ChSaWiq7iC1lHxLYZkfGi5v0NDKWa/XbhY0zLqxosHcrp8G74ZE/QKhL324Xuk1MhveYpZAwbZV4ouYVU76VRYJftAN4oo/on+0rm4q5a3Q0V1uEBW4iqgMN+mm46vvx8dcBZzJxYrlp+pVOoGgqh0mt9euvHgGg+HFluWx+ShPJUzWvZsf8bM5YN/RgH54kuwwogCqZci3zMzGcnhmWgvUoPYKpjdEVZzlGiOyv0mAXpf+aQfbs+IKEjxiC1Sbmwn89aISUSXaNyVSClWjKtR6ON3K8GJI1oYUKHxg2RLQfsgEBhPdGjjlScjBlLc4HKtzUhlGVO3mdKzeNXumo0MBA71Mgiza9moMY031in0+PgJts/+rtdeD7QVExqT6uN2EEvgDfIqFZyigNpt+D7M18YQoUiOmJDoapKCCxFdjzvs5ZuMVNKkqTlKDh2FNYdxwhnmaICXv28MLjQNJMUblFJ49Ukd12B4iJTlIzxynmiy3DZ8s+X6zV+GHcY33EZmGDrjFO3yjrWJJeKpd9XCg5aIFGbCokX6gTmWFYXaHOpqa0nwUCRpaFQxwyrCcWKx+9/xVDS7JKZpeaV13v0TjH58OjdMM1A11CtD0jkR9KlUJdXeke03D1DaX4/Yg/NaOFtZFS6G07XkfnSBLbPNF9eLeXZtLLBJpYaHLKjUYWFTVAo6GSRmRHGLD9EThf3Wi5e+HiXESiUAP6U92Mz+mKFiwbZLmJ0LbryE6mkiH3w2ydbdrOTanYarhvmb8xwPu2HwHliyjDtL+fLhT4csFB/9uNIbIlbBlIAww/P0BPay+Vs3oDxt5l2MlhfeihQaHnNKuEFFC21M79bnx+E22XcyHVMcWy7h4vVjNTqz6WdfE8PQ6lWbolkeU3mXKMPXq02lD+hmD5gRIX0ek2HTqvPioiuqORGNBHYZwPhzRbq7TATeVPM740EZ3/mfXKW4YSXQVVWYF1tFdayNekx6nH5S2Uw+IxgGCZ8iOkVUkqnv7TFw5c8xMBsVn1Zinvl9K3YQuLjbDG7HbtM7qY/ulKQEv4bM7xhu6FwnqgyrLYzurWwD1x3Y/yyIQ8sg3TFcbnQocJ00Vmv9tpJJPMHGKUPU9DFjFVoeb16yyHpqp+NmgtSryeZR2T2RcfVTlLFaQSve9OsFQ5x+s0NE0q6xubPkOa1SrtVMltXgMJlsPNd9pBgoEtPWfkVtVSb3VqoH53AO99bfvseaW/G68HpHLyNmxibN3oazraaS360FBs9MmrPoprLHMMETvOaSxnM/8l6q1hSC7Ylka4cQpL6VjUqhdKxt6r9MoxiMNdiM7SQpaKhiFbm6Kdf4TrcK+cJlmEXCULl2QB8Gg+7DLIv1iXjsx6m3sLm4ZKjo9Dy2n749tsKG5osbIv2yU9SzWgq+mwwbSjZmloFqU/fIA4flsntaZLC4qhHaFuqH2Lj65/gBkSQwOkJ5/PlIuKEaOvrH6JgN40A2+ypEAAAIABJREFU3jARap4Epkvax1yhwkDNOCSHKiNUr+3YVcGNu7hWETNsV4wi6oJCtUiQF9t1BmrFEdU8rV5kYeaNhiJaUf0bM4qOHb5ynmAZtiDY/g6daJvklgF5c75czKd4VPalL2nBhccKAFxydBQSrzxm0W98ZD/CCVlMHs7c3U9JhFJJI9UK+liXuk3smbE4Vxvw7UZcKMtU5U3i5GZYhNONHWGQ/+QDctRX15ikS/355wI0nLcxuj9WoLqaXmzc/2sAb5hRlBtqF6+uqSHVyTyhwio/YMujSjuD/RKR2i0IBQBPY0YDeh2HDy2WFEoAb7eL0ugEJSZgktDWNrQPSioaimhF6DdmFB07fOU8wTLMNxVl+0lP6Oqj+R160DXJLwN+OyJK5eQyP5C81J9OCtPczumTg1IpVkiZfk7vNTJHdLOVnmj/6E9Yp4ewrDM/N601mezpJG8yxriczKAiRLO4TwDQo9zOXNb/d/SDUJZp08VM8qFQ7Kuuj927YRRNYnRZJvsWjqa2LtwZs1LJdZF2snsiBPCGGUWpbv4YHOJGmALpgLQnCDawJUA1AYhA0Y5kFifUYYsZbDU0pP+ymkWFIAXvv+T6D4O0MeTrzGbcV6BmfQCRaCiiFZHfmFF07PCV88SUYbaz9W3YHXrRNClYBk1e+zyyw7h2SD/gtFL9UfN0VIQpLNJZ2eivy7a+Z+ZaadLDbM1Q5s9TpQ/WpU3FwZP3q1IcywUG92Gr0TZB+U1NebtYs2FPV3sc2X27Ce/uLd+zgRPVPUdnP7ZxnoRleD9GPm/JXAb3xofs4Kr6eXjfKelCSR+ls98nyh+jogv6/h2sepas3KCfjksf/qof00rj6b2K9Ouu4a+nME/5opLSeIiOg/cQVu/dyPFRzZe4+hZa7qH3Hp+92Md5MsvwXuLxUjvKXWD0bPTgZZiKYucXz+EUhuDXpNV7w/x+cS7a6XmYfk6nIpJKdDnEQz+PTvfWqf7LXTc31ANIpW1PnfELxifQnqh+AvXjzTnL8PFi9ojF7QfOj2jZA+/c0TaNwoR3C3gnqlugOp7OWYbHi+mYHs0dbdO4Tni3gHeiugWq4+mcZXi8mI7p0dzRNo3rhHcLeCeqW6A6ns5ahv/486/5byIwEZgITAQmAhOB9yMwP6I13gXWaB7NG4tNIzrh3QLeieoWqI6ns94Nj+fb/X6fy2CYsM5QbhrKCe8W8E5Ut0B1PJ2cJ/NueLzIjubR3NE2jeiEdwt4J6pboDqezlmGx4vpmB7NHW3TuE54t4B3oroFquPpnGV4vJiO6VG4o/38/BhvPYUZWnQjLl3hl4YMDdkI4R3S03c6NVF9J9rHnet7yzD9ulL7Jw2PG9HfW74GmfQrVuXnpB6cco1+rxJ3NCmNnYbRgJzml/dkCEWQiG3kGamN8I7k12d9mah+Fv+jzB6XYfpV3XTkm/ld3aN4JXZ2lsFDv+Z4MyfayQTtRvoN4rzh7/PYWbDwhOc8rUGGePQvx9KhTPqvdZWzRr/H1YSSSyP+zyKtkil0acgUIcWXaqSI7DANA28rN3SUzfZgf92z/oynHaHfIYUTONRs+QgNL5Kyq+o8AvSIqnLIIMe+JA7loJKpq8vzKMoSMgC3PREbhnBPoLCriNGpYzmCOiX8L8EqlfV8FO9aUdg3X6mDs/+0GQZfO9kauLRCAl8MVOrMVH3rG6OcJ/ojWrRN0om49CP3dBIeLpiGmr2ScRkYGx8pBvRTw2siV6coGBIlwbg7FJOFXH05s8XBlcjANsp+pyO5rhfKmJQ8jiHDs1J/BTO1MJRYEaXN/NKV4mooQhf9hsL8Mnq/3w0DDg3TRnjTOXt5Fza5wSshRZp3B7095IF0PAYuGQ55HcVTwtKpnuUE7tu1ngVeZoGMOtpvsyKq6ZgzXhh0doi5iuVTBt1RxHTOGv3hstIgkFp7gHE3K9PCz+XQbE1pKNoT0m+tYx2AM9t4jB3LOSFbyb0Z3HyWY3aPX7pm82DTwnTQ61lZobbcOhFBWQ3szZlkEPnCvBjKwrj2lfMEy7ApOS4AazXvgg+XQTLodrvS3+0GR3oWS/OYOUCHYsGRk0gWAdSopRZRYzO0EBVspdr0y2ix0zInz5JvWss9mMwaiH3eM9PlQ8YK9AkIuJPieNo0jWk03kMe5JtNF0qqjqZkSr2UhqgTShFSr4ZNjbmOMI/UAHgxF8hF7FMb9rCSKh4JzdjnU/ulU4XTu8GdEwBV2nDQ0VRQTGU7XzVs1bsmCFc6Gr0lVeVrq6lJxZn4gROarAmcsWMQaztUrbgH+y+Oxm2rD/vUfiIz44mAinMUMnhPJBfKwrf6lfMEy7CZIl9lrFa4L0ZcBgQXXYOmI3XoGcNPDRvV2Z9TGYIL1fz4IW3F5aFQfTbRkiqRgWcmgAuagQfymUQy65ZH6X829ARrOlHFM/Kr1MHKT+8yyD5AZJDXay5llZxClCC7ZvPr0xhCBLJe3POaaQhd1siL4FJDhzLfoXJxxRLLaoQiWoUijc5tLvJ02ET5AI0Kr48gUKhZww4DFgLNCFuzZuxoKIwrWArr7l4rqmlLUEvO+JX3XY2bOGSYhd6XEjZscNGQHUKG/BSVUluZHaqEHauxtiMyFTUqmyL3Ol4fUKj5RGb25ktjMIXwgvdNHmFe0+A8wTJspqWu2bHX6N0Jj1kGECeTBurezmWIDnH1rSeVgEslk+69659RDl07iw4268M3bIpOUqEXeJmPZHBENMKsqIXT2OizSlgg0JAGIm7Da7rFgIVXDKWUSWxwG/9HjcgpdCEKhRvuBlgRDPMY3QpvEJ5KylnIV6Q/p1PzU3rEWHdFUkBrofzJSNXchDHKqCbzzgYqqr4M6x1IlqYGrvjTAGFBqkibV1KWwkEPcWUsCIWQ3PQycblpzo+D0/1MCbyIyxzQoMEwJYDHNAN9lcRO5QRbn5lmCt91rue3D/BBhg6l17FI4TzBMsy48l1jelv6oh+mLKrcEwMsgxowNtD2iUoPTi/06TRzp0ehkJ3D+deSIoX8LhCUSTdtJdhZINX17aq2QLPhWFJ4wcfIxY86qfBXUm3xoLUrUS1T0UPMWPmD696WaFERv0IoM0NYRDtlWIZUUS0dnNVoNl3kHKZd4Q3CU0kc3vz2B30ojz4IEIGgk4YUnC5ZjN8UYqGqOVKSaEFGNXn3NlBRXSjDsIg1ctmjGIQlqR4cbmsKQiEkN72Zmetpqqv1SVy/ODVTom20mFNZKolNfDgzq6pGy7n+rjKc7EmbN7XIjHYJati+F3JdBg7NGkAyNj81vVzovVV+Kxh8aGHQlxIFN5qLQXRmwDswdhZI9U4Z9hpl3jQt3IOkS8UUSy8EFI1Mudytl81Jv2Uqk4KeTHKUlmhREb/WUKbPTJXqmV9FRmotUpiJKVhTsS38/BTa6DddZB6jXeF18YIUdbuBZ85w0EDdNpohb8pXVFewVOadtSqqvgyjX4SP+qvQsUfILD4uSglns/HA1qQurmFvqqZRC4KOeeMNaKaEZy2UOlNAoUFEzTNnIctYdDVeIz3gfZKKeBrqYjLnib4bVpy/nkFpe3cHloENO/YNrC5QjpD8WJICZ6sCnLZoyeljodb67ahodxplpCniSyuyWoW2b8yW6VIDFeURK2/7WkGrB6HMLFJEpSHv4yKFuYUiDWH2M67h8VKHpgC8NoTYpzZudnTHo/bnAoJmbIecRkIFRVF/MxeufTYAVYsUompA1Nglz5C7uLosVTh7r3UyOwf2O3MhG7bzc7BWcNsp0bbWqFepQWNPZGZ7sjxi5yRygEbLzUX9iYHzRJfhW/0AL9mgnVundi9cZhnUBZ8cE88UrOYrGsmVMGfaUil09elMuuQscVJj+hthPAvfdrIVRahzN5zfRMDZLvKc0G5yN/lkRgKgqFed9CypfIHkrmyHsIaINMxUVqS5BHnQuNDEUMoNK8tg1WwVV+Hhhrr1gJ/iMvRWd8HWAw4jvCodVEffDd9uFyii9PG9koU2a1rZQkCl7CiClG+ihWEkA0qiHg1YRBW2i/S8rW6sMMIOergCEFZIBXAlRYK2Xt4q1KrDUSqfTU1hl5KnTVNrvRdc72NgrSUpo1Tn2cy0M7i+do+HAXoTSie+jsB5osowF4Af+iRx+hyveRq5Tu9OuHAZ5Hr180OOnS7qyXOKKL3BQR5frhf6FoByQRhIuGSxEL1UBrFs4ydU1wY4KyzA169QNuqbmJiejqdPPKSYwccH6EvoSV+KZ/0GetYoBoIIJdmZxHop4FYR2J6Vwt5ZkPLIiwtLDR3KzM0zGVGpuEiX6stE5MF2S6TFg/yHbht4MZoQx7TZlZzhVJMLO9pzU6qlcV1LKVvMH6wItVhUihKkZAqacCSYEVWFAXoJm3rxLVxdGoQ1UkWdelVopx0ehltxL+/b5SDifmbjY2xX04HbCg5WCykBJplmy0KkP5CZRjt0jcK0deVaqGwHn0D6sSbniSrDWYH6FPBjSvfDjcugWAUfDiyk/LroMr1hbmToc12eJkyhBI+25DoiojZudCTbQy0zaIrOmFlssUGG2gPKsPquDyWvXXP7a8qt6DF0LKvYZn7RjMqRKGqHaXh4+/FvO95OtbZMGnlacEHvB4dDVD9oD07dgbuz7jtDqNy1O7M53hWEp8x4sQ0rzFzLwnkSleG1GnbNt+dlsGvgloyzl8BL/L8fx1D6imiqrC+fRoS78r+YZ9hQD/N4BpE9dAPhPbQjuzL+M6j6+zjKWn0zvSuY0Jh3Gv/OudBH1+Y8mWXYATMJAQJ0C5w+bv2BVf2ZHS0AYUzShHeLuE5Ut0B1PJ2zDI8X0209oic7v3q6/KR5c0d7Erh1YhPedTg9xjVRfQyvb+WeZfhbI380v+eOtmnEJrxbwDtR3QLV8XTOMjxeTMf0aO5om8Z1wrsFvBPVLVAdT2ctw3/8+df8NxGYCEwEJgITgYnA+xGYH9Ea7wJrNI/mjcWmEZ3wbgHvRHULVMfTWe+Gx/Ptfr/PZTBMWGcoNw3lhHcLeCeqW6A6nk7Ok3k3PF5kR/No7mibRnTCuwW8E9UtUB1P5yzD48V0TI/mjrZpXCe8W8A7Ud0C1fF0zjI8XkzH9Cjc0cLfoQz995whmyc+LehV7ZkSwrtngw9h20T1EGH6uJHfW4Zvl3M5MeTjUZgGLCOAO5qUxk7DaERO+Q1LaRhm7IogEqWNo6LNNIR5zw2Ed892Hsu2ieqx4vUpaztl+Ha9nC9wfko2kch8fnww+Ck3WvN2lsFDZxPcLg+XbDxZ5BWHcLRc/Ba6CSXXP/yfgcC6iNAIXRoyaiimiPquCJoZUQ+2Df8+uxVeOrAw+MvH3/jRvDIo3/Fni2+Xcu6hF+H9Q59htk9YfmlVRTWdP1VhjXZWOqGKMIM510DnpUBB2OxsTTCEZ2TROW1qB6TjKPOhbDQGf84zpbLWDO9aURjaPDaR88R8RKue44TrKgGRflX4fL3dGFyVMztECpeBMe+RMkw/Af6YqwmnnHMJK4ekMWd2FxDAUPrSKGUPh1ijoQinzOcpMuSPdsAhabMG0SMNYdh/A+Hl3ytNJ6nSudP8l13gZZNpakSfSKjO4cvsdLaoU7h/aH5hIaKaEGE06U7Gn7VADCe70SxCF0r1TO5sTWmIj3HV+zttgGoHg/DyWEmTdNhl3StTtxxeThklWjqJ1LN+zDHOE1OG2VUHPR/9WSGmA7sF1X3Cg8sgWXi7XenvdkunjYMv6Vi3NHbVTwBoHfDZxHlFmB9Uzhq1VICdBojN0EJ0sKDhUv0yWmZUg/e7qDR0GNHaj9VzobxLfRVHpP5JIxwSQWkIGzdQvNU2IlKwRSc3PNs+KR5eXVaL1bx7lp55lUHKf724iHNxVRh1x+8iqma3TCUPTvmmDel8jYHrQNeVigBsB8GOQB+arBOcsWOSBB2r0/HFdHB7ZOEX0jhPVpZhAlwhB8HYJ3a4DPKx5Kcz/dFTFEgDqrM/pzIEF6r50UnaUsuTF3l40pSiqUiJLugFIr5CZDPw2G0Lr0aXR+l/NrReV3K6kyb2jPwqpbjyk897v2oqCEWvOpRUg7HysYSUTGmIJqFIQ8SFBxvC5hvCJkNM4S4SsS1S+2wYeMlIyh13mQ2bbORIylm+6y0pWNlChXV4wBaiqpezgzcPE0Zqj2VUWtD1pUJEW1uTn6JSaiurBGfsWM0QO6LMqWyK/J0dzpOVZbhgz8vsypkU5Mx+oDTLABNcp4E6NEgP5Q0p8rMnRTlI5wHSWyy4Ixnl0CUJnKXAzXCyPnzDpsBMKtR2KfPZdaA1FvljvGIopbxhg9v4PzqGnEIXolB8o8+Do9z+grvhfNpluizFhCXwcpribZ5gatNRBoZtYNK6xQdLP1238xomkCyormYXwERnLFXYzCvHyG5NyhyWEJKLnExcTMsPpdOdSbFfxM38qUuDvUSKZIalPVeGCUFKlYeC/wkMYRnYnLB9Mo8e914uZ3rjRq2Evp8tKVLI7wJBmXTTVoKdBVI972+q2BY8NVuhJndoRV/kWfrtZmdA5r23IZTZVCyBYr3UQqFwg6sj3wGbSilDnVEj4pXLvTVahW0jsreuh7d9N3y65Hdv+O0d5QqlM6S7GqP0C1NYcY3UQVTdOq0rH6pwY1ONoQOVDy9ttzWhOTkGQnLTm5m5nqbI1ydxwft+EFvS3UskYB2/yXmy8m7YhRqCsU+o6jKIEglqbX5QfLnQ+8Z0SbeqDPelBJIbpRxrdGbAZmfh1eh6Sdbfoue3X/CCM7x9ESt33qihvNd3haU6ivG+DBseLI3YFg3YMLI4hG2cVES4gWx7biO82c4ws2RnDp3hFA4Fe1eSoa4RiIiqXs7lLpIflKUNAjNHbT8t6BalliF8YGtSF1DgTI02tXDjrCOBIf1ECgRGJnGerCzDdHmDwSCYbb7sCyxYBjbs2F/yK3Z0SQqgqApw2sRQCTZrtX47KtqrAiHlRlPEMh6hD6HM5koRlUZ4S8rcwiMNYW55z5z4f8gpCqWxqDnU81mihxcuEMG0drbxdR/vDzHXUPkImLSbiKpezgrdYMjsqxF0y1Jtw+oIaebJ7BzY78yFbNjO9wFYMOqs/OkZ4yQOf1eb82RtGVa5Q5DvvAqrox1oa5CcSMaL9SrJ9Ef1OR3CbaUtlbKxPp1Jl5xlajWW5ioj+SEOXx+zFTKkL551juZAlDegb9fLpXwCUfmcHpIXLq3iAD3c0bjOSdmTBrthuobIo3jnsYa/U1lFXDQLswztH18DLxmcMtW+yRuuBHZPDalOdj9UuH9ofmEhogrbRXreVjdPGAmQTKQAuhVSgeVJUWdrki2SGKWTq2b9pnA13qSJ2XFSV6ajTa10ogQJ7P0OUlCGE/5mm6qXLfRlbXrQSW8AyUeGd4sVLgPeV8ju9OaVevKcfSa3TufL9ULfHVBOCQMJl0wSopfiKiooqi/l57GE4Y+kJU0H0BMdvmXX2BSLjenpOLnl4sLxSo+mjxGy4pJ91aHMowywYQ2LH9ZIKZMs6PmR0mobWWHjhukaC3fYDeClbITrQDaadk/zV++lcNEE0gFph0i80iREVSGHe6erp8GtoodujVToSm9rwh3Ixr7sMRR93M+saaa+qunAbQUHZxSmT2j6sETOk/BuuOez+ohwj/HDY7gMiinyOeJCkNdFr+jTTsJdGhGtjN1DCR5tyXVERG3c6Eh2hmJdu6P6UPLaDWuqVEFxo1MdkVl0GkHsGn4eaulHZlGyw4aHd4dGHs6kPaPa2RJaWxPdKQQ74JqwdGZbIz44D+fJw2X4KKjseRkcBcOd2ImhbBVLrHnSZmYjgkThDD3tj7KI4TFzhWr3RkR492bbce35DKp0f+r/3ION48I6nOWcJ7MMDxfY4Rz6zI42HIwthya8LWR+Q5+o/ga975GdZfh7Yn1sT+eOtmn8JrxbwDtR3QLV8XTOMjxeTMf0aO5om8Z1wrsFvBPVLVAdT+csw+PFdEyP5o62aVwnvFvAO1HdAtXxdNYy/Meff81/E4GJwERgIjARmAi8H4H5Ea3xLrBG82jeWGwa0QnvFvBOVLdAdTyd9W54PN/ud/UrWkM6+D1OzR1t01hPeLeAd6K6Barj6ZxleLyYjunR3NE2jeuEdwt4J6pboDqezlmGx4vpmB7NHW3TuE54t4B3oroFquPpnGV4vJiO6ZHZ0fyvBBlKCwXzi1cttvA3MjvMfojt8fR9Ugy8+zTycFZNVA8Xso8YPMvw87DfLufG4RZ0pHb5s0fUPD9fkqRfSj/JCUq/VHYk8XBH8zXVU7yTfR4ZlYYpyV6hUPBSQIiHaITwHsLyPRs5Ud1zdPZjW1iGqb7g34sryRu933QZmKNE0K3bNf09fBQkHQTWRzsdTPLYz8PeLgs60fLdtsNQYqVkyz1F6FgjTRu9Fg3S4DKMIl6nUFDVgdoIL53KVf/Ol6s6zwSOzFHHg6VzNOn4tfRnhtqJTZeV+s9ka2LQh+8kA4GN+tDdD+yI6r3p6Qp3AhDu3TD9AvAYvqZCbQaFEkMB2QJH8nkoUgrkKPvRrHEFULHxe6dynugvLKWTq05Qh/uFYc8uqmXwakM7ZThPtcxhbApOLzMctNl5Uo9C4dS7WI97t2NhKLFSsuWe0qf7O13R4BsGHM8gFMO5/y7CyxlDZ+LcbryN1us+SulcYnmoplZniI7SrjoUGrxG8mT8YsdPJ5PB+ewCmTrtWHvcpRDVcpw4usqeLrtD8FkQ0qGE52tWl44hBIifB1yhXztthekYuXSE8unC5ohUSol8GZdSSSwsZqfDNIsTWa6ZEstAyczHanCe+DIsGX4sd6y1ahnwYL5R1Vf493x8Vx50he4WSXG20Nlf6dY3OAGscFiz0o0D3zDrqZZyPSev11cNVAqJnw9WzpLWyMgv8ijN0ELDT/8GShDK+92XPU9h21r0xTIsgtIQZ4XiG8JzlAbCS7sdbACQxbbeQR+ayWfdbyc2aI+wutLR36QLDOICdK6VXc8VqfkQDVHNZTiwJLnXcycEIZdh0aeBfBpw0WcabYXMGMUgomm1IYf2BAQWgQLeQzU5T3QZXgL8QA6qZcBnWp/4Pv+ER5onj9OTOHoGQM/V6qKnKvZTheCinrKFrlGzQn0YdgIpzidKJtAoF4j3dNw3divS9TkNPfKr1hEH6ztfLvSOdLLnyoJZiB8S5gd/9YFR04weGtWid7d0KPPsUv/EGk/hIX5U2vpfxLEqe1WGIl1s+ClQ+W7bCG/a7XIOcXrlpKQBnZ9CkYZ4qCjtPSVeI0VLliNdkPTcrUQ1VRHdwyuiulCG4VrDuhODYMqwEXoW8CZqbYUsYuZnYtoizZsaaoamFES7ChA3XpSF0pX9OC3OE1eGeefm/8/mxvE4zumf77Axg7yibKH4Ztc0pzroGjcNzrEilFaF3qPChaeVm8oLNrVgRgsSj1VoBWncJ7WVgpm7aFjtb+vjjuZLXUhB26RSIrHf9iKGIl3fwHLen2Unowgv5Ua6wqRLtx/4RKDLvZS+Kbs6Q+QhpJdxOGUbXc7mP5WqIqaTuCRvGS59o/rzXUQ17QYCK72FWq50ivkNdwrZ1F2+/C7IYZh+AXgbMrGiwVKcMMNETslEj8/NWL6FMJsm59QzQHn1R6FEZTg9688O3GiVOJyO4h3+ihblw/kiz2Zvt0TglWD3kCDl6Knvhe42672olQKFGSDLkfOuZUZvtxLIvc6U6afz5Romul28rOiXaIg172uoHa1MK/WvEILH1DzkOUXk6Ybo9I3Dl+HThd80udJDop/82Xyfe3Kl2RkifIMVlWEnQZnsqnMYpNTiok7alDJV+k+HciNBlbRNT8X80J0WCPm6PwjT84B3YAAzQi5xIhilb45wNbZv4IdSTwIVTHwUUliGlfEhUIpjxx1YBhRbvMRKF9/5gpTG5NrUbhr84Qd65nstb7Syx1bKI2U5WHXTjN5uJSAHOtPb0+mZenKx3tYnITILnUtE0vIUGmLHuxsQyjq11D8heQoPMZ2cjv5EXJgjLqIhp3R94/BlGDNGElsagoJQpOGHiNLexMN8ZiWcpBCJYhRMxorb6sWcjzRU0jY97brTBMFdX4OaJwHvYbQEsZo9VJRu6cxWFEo9B1Q450GI31OGw4DnKNm4Q8pBk5hJS9kMAikZY8WWo/UURpLFzCZ0aAQ6YfSePr6qHl+gycL5JBoi//6G2tHK9FL/CmHhbtjzh/VS2LhhujiX1AgmCmeoVgR32EB4XcZIWtq0gT40k3u6Lxqc6+18NjKkMC891J3I8PkmN8EnCYiqPDhwBvXcaYOg9qKkE3mxrSdsA675TK+tkBnRCSMq3RSr8ig+UUOppoXInXTtNe7i8cqGL8P0pWF5l5R29UEeSqcLRPV8/SZu2rhDykHzzjWu7AVpWdFH9DmfIqAwbSQglrGa0buGVeLlQoBnvtDXBGTcz2m9Y9a2GZZfQSDzvLuhdrQ0OdY8saZP7I96JcwvUtJgTun6xjhl+Ha7wBZA2SWLSHVSVWgM9RLbZpsEwaVd5dQ5TvRqlMjvoaGSttpvTOu40wFBl2EdpqcAN1aZrrPEjGsn0mAi1WIS1ZJAijdqtcWVqTT3juNeDF776stwrjX0xDJld/1o7VqdO+JTy4DuZfNbFMm3+jVzu0Aw5Sj06fktfRKaPoyMZfh0Jo0FKSnrFYH0RDsxwB1qywxOQLnBSg0QY63W1nt54yU9ZSdLXcTEBfIElsUTaFTP3t0yoWzVOamIaJ8QpRGOClHYuGG6wmYawsZ00zXMe+sivDlfSiJS2tfLPC63ecxkJwrqId4yi0Z6LeN+hBcYrsEMlqQ+zVPk8xMm7O8HW0Q1XbYjAvKVh7Y7PRBUIHjdQ5g8rAUwPyI7Wg84L5YVYtDZvTJTuW8Rp+un0spMxnUm+6myhYY7zVwnKzoP+Mp20MMdAAAIe0lEQVR5oj8pzW6kDzMd0CNlsloGMkKuSWddoy/RH6WPvEWzPGFGpEZoC/pawy266N1Hw4SyVeQ8HSmyIZiGcVFEuGG6hlm6wsYU0xW2fTYMvItGNnKa5DpDi2oHY3gU1cHcF3cOsseIve9ucJ5EZfjdlmwy31wGm8D6CaUYyk6F6wytuYE25bnV9QD4eT3FS+2HgvDux6qjW3IkVP1dLWX/EDebu08jzpNZhncfqK838Eg72gGDNeHdImgT1S1QHU/nLMPjxXRMj+aOtmlcJ7xbwDtR3QLV8XTOMjxeTMf0aO5om8Z1wrsFvBPVLVAdT+csw+PFdEyP5o62aVwnvFvAO1HdAtXxdOYy/C/+/d/88edf899EYCIwEZgITAQmAu9H4Odf/Pu/Ge8S466PdhjSwe9xat5YbBrrCe8W8E5Ut0B1PJ31bng832YZHimmc0fbNJoT3i3gnahugep4OmcZHi+mY3o0d7RN4zrh3QLeieoWqI6nc5bh8WI6pkdzR9s0rhPeLeCdqG6B6ng6ZxkeL6ZjetTa0Z77sarnpMZENnnVgndgl9/g2kT1DSAPMMUswx8LIh1JmI9TX7SBjm8of/bkbCNMJ2QtsBiJY3TDHW3lj02GRTckHgOLDawM4d1gnu9SOVH9rng/622nDNPWr45WqXN0hirTHlqfWwZUY/WfPbornSOy9idbb9f0R6c9WT0GZ1K7wGIkjtH1oeQabKxvFdcW3Yh/bbfC6zM35XHOKT+aL/r4qrKeYXK7nE58mpcXQYVDI15RvScUYGGqvocoo6q47nQE24lgLaCl08V5HWSwy0jnNZiMFdLJb/qvXtAHQnKxfz37U93S/EqoVUw6ln7NEOeJ+cJSPWjKVYnO0B4xg2XwZvO4GtLJIuUvMKBuWsFgRFpRY1ewRJp3TzOhlLIqjdbJDeIZc4Y30MLztQ2EN2fsNR0neM29jIzPa0lidQydOqKvp3BoxAFVAg4ukHW3iapmy2clljJMg7n6cj0uA31M/WTCnwKFcZcRLyRxJ6tcoUiCaYAT6JpOVY3ZZJKvbXCemDLMaKhVpQHqDGnGT/dgGdzTaYPprpISiBs1lcjSfMsJp3bSqW1loDaUVCSULlthzWkY8qaUXvQI9xoaaZAXQyB0Y6Hbrc0SSB2JhKE0dktlNfR+F+t3n/MbRgN4w1XezEACSQZJ1NeEUOHQ4AKqVJJOgoruVeAsGppP9Syatm9VSV+iJBTdCBX1hMgsuTVGXWaAdMSMKPSNbc6TLyjDKbfogc6Znuuez9yQpKDhHxqloXqm+ILUlZRloXRhWlOombb1QY26OmbJhhmiNtaKZtBSD3ZA0XDYBuxo1QcuwNI3Xaa3ym2LLtq+qhHAm5Lfbq9xBgpUaePl2yl1sZoYQoUiOmIDUE3IXM68Nq/nn/MFLlWaqLalPJieEkPanCyzh3p6Qqba1lntQKi5sn9v67vKcNpTJKEoKfiS3aaHpE8dCKSExOmju9Q7XfgdXfo/3VXrPNMCdNOdngLW7UvMEDkngrcgkRkiefgG7Gj3/u2vHw0rbkg8PEzPOoDwZh02HROZMpAuWMufveclodY9T6jwWYMPIQeo8mKm+nu9pf9xLTdRbUuheMYiIEUoEVtvawrD1LSQdyC5n1ETug1spYVKyTd0vrMMc9JQuqVdJDUu+KwYR5hZMkqkXEopAnXy3XW6xbZ3Fb5+pip8Ds2QTFRTMNWSbF9kD96AHS17IuXWN9b4OsswouThdVeFiT3ldefyksZnGS7IAqp5XVIFPqd7YlyoTVTbUiiepwtIxRB8TZPxM7xwa2qW4Vbtlr0RZ6G2G1hpodUzfH+W4VwP8Qo/XelLgW6UYZ+sirIi4SwL9WMzJA2tiL+Dbr/NJEqO2YAdLTuAdbTVRl+Zx9dslEX+r2p7eNtl2N4BV6D4GlUthDoYK4Tx8ZqAalm69Jq2lEIgr7GtUCgDXsqD7ClKlXSKTiGYRqinJ+SqbVFoB0LNhfmbX2cZDh4G14SoeSMZRaS0D7nEVATVqQqxZVnqZMil2lYkWMEBi1Jx1A7saNkFLJ+tNnqLPIsfq0bBb2h7eOOq2U0vWSQx14oEHwxqQFUgueV3qIQQLGKBQZi8lEXT9kWHbYhOO5D7oaKekITdKjQDoWIr85X9WYZT2CnJ+K6Xs+CWPy1dE0cyikh8O5AG+auR9Cnrc/1kV29h1TTzmd0yQ2SqPUJKV9JiOzF8y0e0wvtaJlZ0SsvU4FmGCzD5FQpGGYmSrX3fZm7pfHIHT27KTMO+AqoOECRgW4HhBoCQ1npZ+aqjVLgOqHBjRHg07pQTxQytEAZu9Lm9MXcm7fNTvaAMp4CaLS4/huoMPTX75kJ1GdTcktwgkjxfo6+uk9Ppk8Y/5evoC1L52/P04WT5Bl/2aSnXG5U6NgNwSp+K/qEZa+bnsJAVpwulu3gFgkdv1lAWT7CyttqFlz7VJW1ueIph+Kquh7e9HYebg1pN8WZeV9O3QAuoug0BCdQ2f7yGkSmBpgl55SfRuh8soKtVADNqY2uqzqaFeSPT1mc5JVT2VJhwNjMCnCfhF5ZGwAiWwTp36HNa6ziB6xkZEA+aC2aEEz5heDDzbkk+lFhHW212B0fFwZAoo9/W8PB+GwJb+PseVMPtYAt3ps6NEOA8mWV4I3in2pch4Hc0fQGuemZWqbiKSXeMyLd1PbzfhsAW/n4GVX9XS6le72y38HTq/A0Cswz/Br0p+z4EPrOjvc+/D8804d0iABPVLVAdT+csw+PFdEyP5o62aVwnvFvAO1HdAtXxdM4yPF5Mx/Ro7mibxnXCuwW8E9UtUB1P5yzD48V0TI/mjrZpXCe8W8A7Ud0C1fF01jL8x59/zX8TgYnARGAiMBGYCLwfgf8fWBjni4FN2CgAAAAASUVORK5CYII=;" vertex="1" parent="1">
          <mxGeometry x="310" y="160" width="642" height="276" as="geometry" />
        </mxCell>
      </root>
    </mxGraphModel>
  </diagram>
</mxfile>
